<?xml version="1.0" encoding="UTF-8" standalone="no"?>
<!-- Created with Inkscape (http://www.inkscape.org/) -->

<svg
   width="34.229424mm"
   height="75.545822mm"
   viewBox="0 0 34.229424 75.545822"
   version="1.1"
   id="svg1"
   xml:space="preserve"
   xmlns:xlink="http://www.w3.org/1999/xlink"
   xmlns="http://www.w3.org/2000/svg"
   xmlns:svg="http://www.w3.org/2000/svg"><defs
     id="defs1"><linearGradient
       id="linearGradient9"><stop
         style="stop-color:#7f7f7f;stop-opacity:1;"
         offset="0.06320908"
         id="stop10" /><stop
         style="stop-color:#ffffff;stop-opacity:1;"
         offset="0.49756888"
         id="stop12" /><stop
         style="stop-color:#838383;stop-opacity:1;"
         offset="0.93679094"
         id="stop11" /></linearGradient><linearGradient
       id="linearGradient6"><stop
         style="stop-color:#7e7e7e;stop-opacity:1;"
         offset="0"
         id="stop7" /><stop
         style="stop-color:#ffffff;stop-opacity:1;"
         offset="0.48298216"
         id="stop9" /><stop
         style="stop-color:#727272;stop-opacity:1;"
         offset="1"
         id="stop8" /></linearGradient><linearGradient
       id="linearGradient3"><stop
         style="stop-color:#5c5c5c;stop-opacity:1;"
         offset="0"
         id="stop4" /><stop
         style="stop-color:#ffffff;stop-opacity:1;"
         offset="0.48946515"
         id="stop6" /><stop
         style="stop-color:#555555;stop-opacity:1;"
         offset="1"
         id="stop5" /></linearGradient><linearGradient
       id="linearGradient1"><stop
         style="stop-color:#696969;stop-opacity:1;"
         offset="0"
         id="stop1" /><stop
         style="stop-color:#ffffff;stop-opacity:1;"
         offset="0.49918962"
         id="stop3" /><stop
         style="stop-color:#7a7a7a;stop-opacity:1;"
         offset="1"
         id="stop2" /></linearGradient><linearGradient
       xlink:href="#linearGradient1"
       id="linearGradient2"
       x1="954.81683"
       y1="1353.3979"
       x2="1714.8879"
       y2="1353.3979"
       gradientUnits="userSpaceOnUse" /><linearGradient
       xlink:href="#linearGradient3"
       id="linearGradient5"
       x1="958.61798"
       y1="584.77197"
       x2="1711.1071"
       y2="584.77197"
       gradientUnits="userSpaceOnUse" /><linearGradient
       xlink:href="#linearGradient6"
       id="linearGradient8"
       x1="1167.8563"
       y1="333.10498"
       x2="1501.8488"
       y2="327.27515"
       gradientUnits="userSpaceOnUse" /><linearGradient
       xlink:href="#linearGradient9"
       id="linearGradient11"
       x1="942.30902"
       y1="735.38098"
       x2="1727.4301"
       y2="735.38098"
       gradientUnits="userSpaceOnUse" /></defs><g
     id="layer1"
     transform="translate(-41.161612,-115.40419)"><g
       id="g1"
       transform="matrix(0.04359764,0,0,0.04359764,0.07916603,105.91244)"
       style="stroke-width:6.06875"><g
         id="g3"
         style="stroke-width:6.06875">
	<path
   d="m 784.527,714.483 h -2.057 c -0.73,-9.017 -4.626,-17.356 -11.175,-23.743 -9.756,-9.516 -16.313,-21.429 -18.963,-34.453 L 738.83,589.937 C 730.395,548.488 707.712,510.923 674.958,484.163 645.677,460.24 609.538,445.934 571.982,443.167 v -191.33 c 0,-22.239 -18.092,-40.332 -40.331,-40.332 h -265.78 c -22.239,0 -40.332,18.093 -40.332,40.332 v 191.33 c -37.555,2.767 -73.694,17.072 -102.976,40.996 -32.753,26.76 -55.437,64.325 -63.872,105.774 l -13.503,66.357 c -2.607,12.804 -9.231,24.785 -19.149,34.636 l -0.136,0.137 c -6.349,6.349 -10.131,14.571 -10.852,23.416 H 12.994 C 5.83,714.483 0,720.313 0,727.478 v 3.414 c 0,7.165 5.83,12.995 12.995,12.995 h 0.811 C 1.114,1136.718 85.312,1530.07 166.755,1910.504 l 8.036,37.553 0.561,2.452 H 622.22 l 8.589,-40.144 C 712.23,1529.974 796.407,1136.67 783.717,743.886 h 0.812 c 7.165,0 12.994,-5.83 12.994,-12.995 v -3.414 c -0.002,-7.164 -5.831,-12.994 -12.996,-12.994 z M 231.738,251.838 c 0,-18.821 15.312,-34.133 34.133,-34.133 H 531.65 c 18.82,0 34.132,15.312 34.132,34.133 v 190.826 h -7.216 -319.611 -7.216 V 251.838 Z M 30.286,695.45 l -2.191,-2.192 2.304,2.08 c 10.798,-10.727 18.013,-23.8 20.864,-37.808 L 64.766,591.174 C 81.547,508.713 154.804,448.862 238.954,448.862 h 319.612 c 84.15,0 157.407,59.851 174.188,142.312 l 13.502,66.35 c 2.899,14.247 10.06,27.268 20.709,37.655 5.341,5.208 8.577,11.971 9.29,19.3 H 121.584 c 0.508,-3.763 2.132,-7.341 4.701,-10.247 l 1.586,-1.933 c -0.208,0.319 -0.435,0.63 -0.677,0.929 4.899,-5.367 9.167,-11.343 12.515,-17.801 3.587,-6.891 6.161,-14.351 7.486,-22.03 l 6.381,-39.203 c 1.541,-8.939 3.833,-25.077 5.779,-33.734 3.011,-13.921 7.994,-27.38 14.506,-40.07 23.498,-46.429 70.695,-79.369 121.73,-88.13 -76.247,6.169 -140.05,64.034 -155.921,138.879 -3.019,12.338 -11.015,44.995 -14.141,57.755 -2.034,7.913 -6.018,15.286 -11.31,21.516 -1.3,1.541 -2.773,3.072 -4.229,4.5 -0.556,0.508 -1.127,1.033 -1.664,1.588 0.068,-0.083 0.118,-0.144 0.118,-0.144 -7.788,7.265 -12.814,17.495 -13.995,28.125 H 21.266 c 0.704,-7.187 3.844,-13.853 9.02,-19.029 z m 594.46,1213.617 -7.54,35.241 H 180.327 l -7.511,-35.104 C 91.437,1529.071 7.305,1136.027 20.006,743.886 h 71.75 c -7.82,396.273 86.157,784.336 175.301,1167.676 C 187.575,1527.54 102.992,1138.163 120.445,743.886 h 657.068 c 12.701,392.093 -71.41,785.091 -152.767,1165.181 z M 791.322,730.891 c 0,3.747 -3.048,6.796 -6.795,6.796 H 12.995 c -3.747,0 -6.795,-3.049 -6.795,-6.796 v -3.414 c 0,-3.747 3.048,-6.796 6.795,-6.796 h 771.532 c 3.747,0 6.795,3.049 6.795,6.796 z"
   id="path1"
   style="stroke-width:6.06875" />
	<path
   d="m 126.417,704.091 c 0.081,-0.08 0.152,-0.172 0.23,-0.255 -0.068,0.075 -0.141,0.154 -0.141,0.154 -0.027,0.03 -0.113,0.12 -0.089,0.101 z"
   id="path2"
   style="stroke-width:6.06875" />
	<path
   d="m 126.748,703.724 c 0.085,-0.092 0.167,-0.188 0.251,-0.28 -0.115,0.134 -0.232,0.264 -0.353,0.392 0.05,-0.055 0.102,-0.112 0.102,-0.112 z"
   id="path3"
   style="stroke-width:6.06875" />
	<polygon
   points="287.836,439.901 303.376,439.901 298.706,229.444 292.507,229.444 "
   id="polygon3"
   style="stroke-width:6.06875" />
</g><g
         id="g7"
         style="stroke-width:6.06875">
	<path
   d="m 1727.43,733.67 v 3.41 c 0,3.756 -3.05,6.806 -6.794,6.806 H 949.103 c -3.744,0 -6.794,-3.05 -6.794,-6.806 v -3.41 c 0,-3.744 3.05,-6.794 6.794,-6.794 h 771.533 c 3.744,0 6.794,3.05 6.794,6.794 z"
   id="path4"
   style="fill:url(#linearGradient11);stroke-width:6.06875" />
	<path
   d="m 1467.744,217.712 h -265.782 c -18.82,0 -34.131,15.311 -34.131,34.131 v 190.825 h 334.043 V 251.843 c 10e-4,-18.82 -15.31,-34.131 -34.13,-34.131 z m -243.813,222.191 h 15.535 z"
   id="path5"
   style="fill:url(#linearGradient8);stroke-width:6.06875" />
	<path
   d="m 958.618,714.483 c 1.487,-4.798 4.116,-9.187 7.773,-12.832 l 0.111,-0.111 c 10.798,-10.736 18.014,-23.804 20.865,-37.813 l 13.501,-66.353 c 16.774,-82.457 90.032,-142.313 174.188,-142.313 h 319.612 c 84.144,0 157.401,59.856 174.188,142.313 l 13.501,66.353 c 2.901,14.245 10.054,27.263 20.704,37.652 3.794,3.694 6.534,8.183 8.046,13.104 -250.8342,3.27228 -501.9615,-13.55722 -752.489,0 z"
   id="path6"
   style="fill:url(#linearGradient5);stroke-width:6.06875" />
	<path
   d="m 1560.848,1915.261 -7.538,35.247 h -436.882 l -7.513,-35.098 C 1027.971,1537.28 944.286,1146.369 955.902,756.288 h 757.896 c 11.642,390.031 -72.03,780.881 -152.95,1158.973 z"
   id="path7"
   style="fill:url(#linearGradient2);stroke-width:6.06875" />
</g><g
         id="g16"
         style="stroke-width:6.06875">
	<g
   id="g11"
   style="stroke-width:6.06875">
		<path
   d="m 2802.496,447.499 2.239,2.571 c 2.468,2.833 2.171,7.135 -0.652,9.595 l -581.75,506.784 c -2.823,2.459 -7.126,2.163 -9.594,-0.669 l -2.239,-2.571 c -2.459,-2.823 -2.163,-7.126 0.66,-9.585 L 2792.911,446.84 c 2.822,-2.461 7.125,-2.165 9.585,0.659 z"
   id="path8"
   style="stroke-width:6.06875" />
		<path
   d="m 2267.779,229.032 -200.404,174.579 c -14.191,12.362 -15.678,33.964 -3.316,48.154 l 125.344,143.886 251.875,-219.417 -125.345,-143.886 c -12.361,-14.19 -33.963,-15.678 -48.154,-3.316 z m -37.892,327.685 -134.72,-161.746 4.674,-4.072 141.76,155.614 z"
   id="path9"
   style="stroke-width:6.06875" />
		<path
   d="m 2285.701,864.309 c 0.053,0.381 0.088,0.762 0.097,1.149 0.167,-7.264 -0.533,-14.58 -2.252,-21.648 -1.818,-7.542 -4.776,-14.863 -8.834,-21.522 l -20.935,-33.753 c -4.712,-7.75 -13.586,-21.427 -17.802,-29.231 -6.874,-12.477 -11.952,-25.893 -15.382,-39.741 -12.773,-50.449 1.178,-106.289 33.905,-146.407 -53.444,54.728 -63.535,140.271 -26.339,207.129 5.822,11.288 21.242,41.164 27.266,52.835 3.663,7.299 5.507,15.476 5.612,23.655 0.028,2.014 -0.083,4.133 -0.241,6.178 -0.077,0.742 -0.165,1.509 -0.21,2.288 0,-0.052 -0.011,-0.106 -0.01,-0.141 -0.867,8.499 0.85,17.264 4.706,24.937 l -55.088,47.99 c -2.03,-4.595 -2.931,-9.63 -2.567,-14.782 l 0.011,-0.157 c 1.09,-15.188 -2.052,-29.781 -9.104,-42.217 l -33.404,-58.899 c -41.515,-73.192 -25.593,-166.444 37.862,-221.722 l 240.994,-209.938 c 63.445,-55.27 158,-58.257 224.819,-7.109 l 53.765,41.163 c 11.544,8.835 25.488,13.952 40.343,14.791 5.287,0.294 10.301,1.878 14.675,4.596 l -491.214,427.915 c -0.411,-1.566 -0.597,-3.196 -0.597,-4.857 z"
   id="path10"
   style="stroke-width:6.06875" />
		<path
   d="m 3453.021,1447.859 17.469,31.528 -329.417,286.967 -28.72,-21.529 c -309.409,-231.948 -629.28,-471.734 -876.746,-773.493 l 54.172,-47.191 c 253.805,301.598 577.826,531.257 895.187,760.554 -310.546,-236.121 -628.374,-472.901 -873.667,-779.3 l 495.775,-431.888 c 264.971,286.443 458.611,636.111 645.947,974.352 z"
   id="path11"
   style="stroke-width:6.06875" />
	</g>
	<g
   id="g13"
   style="stroke-width:6.06875">
		<path
   d="m 2588.524,196.2 c 88.611,-41.078 202.012,-10.541 262.279,65.465 20.335,25.039 35.061,54.468 41.996,85.33 -13.179,-28.707 -30.248,-54.896 -51.335,-77.167 -63.463,-68.544 -162.409,-95.517 -252.94,-73.628 z"
   id="path12"
   style="stroke-width:6.06875" />
		<path
   d="m 2412.372,48.587 c 93.675,-43.09 204.381,-52.897 305.965,-31.276 191.002,39.524 353.876,188.445 397.131,379.721 -6.195,-12.257 -11.642,-24.654 -18.263,-36.608 -2.563,-4.921 -6.946,-13.449 -9.636,-17.879 -5.292,-9.007 -11.547,-20.278 -17.316,-28.924 C 2946.117,113.263 2712.584,4.439 2479.331,36.927 c -8.221,0.85 -18.7,2.576 -26.773,3.999 -13.52,1.979 -26.684,5.157 -40.186,7.661 z"
   id="path13"
   style="stroke-width:6.06875" />
	</g>
	<g
   id="g15"
   style="stroke-width:6.06875">
		<path
   d="m 2621.081,1646.431 c 48.532,79.492 137.58,130.388 230.92,126.792 30.657,-0.836 61.246,-7.285 90.863,-18.265 -26.728,16.919 -57.949,27.315 -90.033,30.643 -96.355,11.13 -198.147,-47.471 -231.75,-139.17 z"
   id="path14"
   style="stroke-width:6.06875" />
		<path
   d="m 2392.144,1626.251 c 7.777,11.317 14.837,22.873 22.998,33.833 4.684,6.721 11.064,15.543 16.104,21.76 141.967,187.92 384.082,276.086 613.499,222.19 10.265,-2.037 22.587,-5.585 32.696,-8.207 8.018,-1.99 12.396,-3.758 19.456,-5.828 13.133,-3.772 25.753,-8.687 38.8,-12.973 -165.889,104.676 -386.287,94.797 -549.318,-12.312 -87.12,-56.54 -158.466,-141.757 -194.235,-238.463 z"
   id="path15"
   style="stroke-width:6.06875" />
	</g>
</g><g
         id="g25"
         style="stroke-width:6.06875">
	<g
   id="g18"
   style="stroke-width:6.06875">
		<path
   d="m 4125.458,436.731 -1.552,1.351 c -6.473,-6.319 -14.889,-10.048 -24.021,-10.563 -13.606,-0.767 -26.376,-5.442 -36.929,-13.521 l -53.764,-41.16 c -33.586,-25.712 -75.364,-39.137 -117.639,-37.801 -37.793,1.195 -74.439,14.146 -104.574,36.728 L 3661.303,227.499 c -14.607,-16.769 -40.133,-18.527 -56.902,-3.919 L 3404,398.157 c -16.769,14.608 -18.526,40.134 -3.918,56.903 l 125.675,144.266 c -26.499,26.754 -44.353,61.279 -50.717,98.551 -7.119,41.692 0.452,84.916 21.317,121.71 l 33.404,58.904 c 6.445,11.367 9.32,24.752 8.313,38.695 l -0.014,0.192 c -0.616,8.957 1.932,17.642 7.199,24.784 l -1.551,1.351 c -5.403,4.707 -5.97,12.931 -1.264,18.334 l 2.242,2.574 c 4.707,5.403 12.932,5.969 18.334,1.263 l 0.611,-0.532 c 248.462,304.539 570.323,545.828 881.623,779.186 l 30.725,23.037 2.034,1.48 336.946,-293.526 -19.893,-35.911 C 4606.599,1099.115 4411.726,747.265 4144.158,459.434 l 0.611,-0.533 c 5.402,-4.706 5.969,-12.931 1.262,-18.333 l -2.242,-2.574 c -4.704,-5.403 -12.927,-5.97 -18.331,-1.263 z m -720.702,14.257 c -12.363,-14.191 -10.875,-35.794 3.316,-48.157 l 200.402,-174.578 c 14.191,-12.362 35.794,-10.875 48.156,3.317 l 125.345,143.886 -5.44,4.74 -240.994,209.938 -5.441,4.74 z m 139.489,466.817 -3.092,-0.213 3.104,0.055 c 1.097,-15.181 -2.051,-29.777 -9.102,-42.212 l -33.404,-58.904 c -41.512,-73.2 -25.588,-166.447 37.863,-221.722 l 240.993,-209.938 c 63.451,-55.274 158.001,-58.265 224.819,-7.111 l 53.763,41.16 c 11.544,8.838 25.495,13.952 40.349,14.789 7.448,0.419 14.33,3.393 19.682,8.451 l -493.635,430.023 c -2.088,-3.171 -3.214,-6.936 -3.187,-10.814 l -0.073,-2.499 c 0.053,0.377 0.086,0.761 0.1,1.146 0.169,-7.265 -0.538,-14.575 -2.256,-21.643 -1.822,-7.552 -4.781,-14.868 -8.826,-21.529 l -20.939,-33.751 c -4.709,-7.752 -13.582,-21.426 -17.801,-29.232 -6.873,-12.475 -11.957,-25.896 -15.382,-39.742 -12.779,-50.443 1.171,-106.282 33.897,-146.412 -53.438,54.735 -63.538,140.275 -26.344,207.135 5.829,11.286 21.25,41.163 27.273,52.837 3.664,7.302 5.504,15.478 5.605,23.652 0.031,2.017 -0.073,4.138 -0.232,6.171 -0.086,0.748 -0.172,1.519 -0.212,2.29 0,-0.106 -0.01,-0.185 -0.01,-0.185 -1.101,10.593 1.829,21.608 7.922,30.399 l -55.183,48.071 c -4.189,-5.88 -6.199,-12.97 -5.697,-20.272 z m 1245.402,524.618 17.463,31.524 -329.414,286.966 -28.722,-21.535 c -311.054,-233.175 -632.663,-474.274 -880.665,-778.3 l 54.101,-47.129 c 254.397,303.934 580.157,534.813 899.172,765.303 C 4209.405,1441.9 3889.863,1203.861 3644.043,895.105 l 495.441,-431.598 c 267.124,287.304 461.845,638.88 650.163,978.916 z M 4141.36,444.64 c 2.461,2.825 2.166,7.126 -0.66,9.587 L 3558.951,961.01 c -2.825,2.461 -7.126,2.165 -9.588,-0.661 l -2.242,-2.574 c -2.462,-2.826 -2.165,-7.126 0.66,-9.588 L 4129.53,441.404 c 2.826,-2.461 7.127,-2.165 9.588,0.661 z"
   id="path16"
   style="stroke-width:6.06875" />
		<path
   d="m 3622.405,861.177 c 0.01,-0.113 0,-0.229 0.01,-0.344 0,0.102 -0.01,0.209 -0.01,0.209 0,0.04 -0.01,0.165 0,0.135 z"
   id="path17"
   style="stroke-width:6.06875" />
		<path
   d="m 3622.415,860.683 c 0,-0.125 0,-0.251 0.01,-0.376 0,0.176 0,0.352 -0.01,0.527 0,-0.074 0,-0.151 0,-0.151 z"
   id="path18"
   style="stroke-width:6.06875" />
		<polygon
   points="3582.302,545.736 3440.542,390.115 3435.867,394.187 3570.585,555.943 "
   id="polygon18"
   style="stroke-width:6.06875" />
	</g>
	<g
   id="g21"
   style="stroke-width:6.06875">
		<g
   id="g19"
   style="stroke-width:6.06875">
			<path
   d="m 4240.946,372.004 -12.313,-26.818 c -13.428,-29.252 -30.51,-54.933 -50.769,-76.329 -61.216,-66.118 -159.323,-94.666 -249.961,-72.747 l -2.033,-5.824 c 43.152,-20.005 94.235,-24.042 143.84,-11.365 48.968,12.513 92.355,40.113 122.172,77.716 20.917,25.756 35.654,55.704 42.593,86.576 z M 3989.88,182.548 c 25.174,0 50.37,3.496 74.767,10.471 45.775,13.086 86.49,37.846 117.742,71.602 13.066,13.798 24.842,29.344 35.199,46.442 -7.608,-17.897 -17.912,-34.997 -30.541,-50.546 -53.314,-67.237 -144.959,-96.914 -224.921,-76.547 9.22,-0.949 18.487,-1.422 27.754,-1.422 z"
   id="path19"
   style="stroke-width:6.06875" />
		</g>
		<g
   id="g20"
   style="stroke-width:6.06875">
			<path
   d="m 4462.682,417.75 -11.331,-22.422 c -2.304,-4.561 -4.534,-9.198 -6.69,-13.683 -3.633,-7.555 -7.388,-15.367 -11.516,-22.821 l -0.959,-1.838 c -2.5,-4.813 -6.277,-12.085 -8.615,-15.934 -1.351,-2.297 -2.736,-4.697 -4.162,-7.162 -4.332,-7.498 -8.813,-15.25 -13.082,-21.651 C 4282.531,112.434 4051.774,4.387 3818.408,36.894 c -6.583,0.682 -15.518,2.017 -26.662,3.981 -8.53,1.25 -17.032,3 -25.254,4.691 -4.863,1 -9.892,2.036 -14.904,2.965 l -24.474,4.539 22.613,-10.401 c 46.424,-21.355 97.229,-34.871 151.007,-40.174 52.656,-5.192 105.442,-2.27 156.898,8.682 95.334,19.728 183.674,65.972 255.453,133.731 73.11,69.016 122.923,154.89 144.056,248.338 z M 3900.266,25.012 c 87.687,0 174.688,19.289 255.408,57.035 106.217,49.667 194.693,128.106 255.863,226.839 4.326,6.48 8.857,14.32 13.238,21.902 1.416,2.453 2.797,4.839 4.115,7.085 2.422,3.985 6.105,11.077 8.797,16.253 l 0.916,1.763 c 1.584,2.859 3.115,5.771 4.603,8.699 C 4391.738,192.87 4239.923,55.228 4056.359,17.243 3964.203,-2.372 3865.568,4.708 3780.954,36.383 c 3.255,-0.595 6.528,-1.147 9.805,-1.628 11.2,-1.975 20.281,-3.331 26.903,-4.015 27.481,-3.826 55.083,-5.728 82.604,-5.728 z"
   id="path20"
   style="stroke-width:6.06875" />
		</g>
	</g>
	<g
   id="g24"
   style="stroke-width:6.06875">
		<g
   id="g22"
   style="stroke-width:6.06875">
			<path
   d="m 4167.795,1786.953 c -40.188,0 -81.074,-11.332 -117.301,-32.813 -44.041,-26.113 -77.309,-65.089 -93.674,-109.746 l 5.557,-2.682 c 48.591,79.591 138.15,128.772 228.154,125.311 29.488,-0.806 59.727,-6.886 89.906,-18.074 l 27.666,-10.257 -24.932,15.781 c -26.734,16.924 -58.33,27.68 -91.371,31.107 -7.94,0.918 -15.964,1.373 -24.005,1.373 z m -189.806,-112.46 c 42.133,70.945 127.93,114.761 213.137,104.927 19.949,-2.069 39.336,-6.879 57.373,-14.153 -19.417,4.768 -38.743,7.433 -57.763,7.952 -45.939,1.758 -92.229,-9.514 -133.852,-32.627 -30.354,-16.857 -57.157,-39.373 -78.895,-66.099 z"
   id="path21"
   style="stroke-width:6.06875" />
		</g>
		<g
   id="g23"
   style="stroke-width:6.06875">
			<path
   d="m 4213.904,1950.508 c -5.114,0 -10.237,-0.074 -15.377,-0.223 -98.647,-2.844 -193.812,-32.611 -275.2,-86.082 -44.115,-28.632 -83.508,-63.893 -117.066,-104.796 -34.278,-41.775 -60.646,-87.258 -78.372,-135.185 l -8.635,-23.346 14.096,20.516 c 2.887,4.201 5.71,8.487 8.44,12.633 4.617,7.011 9.392,14.26 14.488,21.104 2.867,4.11 10.047,14.284 16.025,21.659 114.155,151.104 291.241,236.813 475.043,236.822 44.994,0 90.361,-5.131 135.341,-15.697 7.616,-1.514 16.147,-3.798 24.396,-6.008 2.843,-0.762 5.61,-1.502 8.229,-2.182 4.966,-1.232 8.479,-2.367 12.198,-3.567 2.213,-0.715 4.501,-1.453 7.164,-2.235 8.197,-2.354 16.369,-5.219 24.271,-7.989 4.705,-1.65 9.569,-3.356 14.434,-4.953 l 23.867,-7.841 -21.246,13.407 c -76.897,48.523 -167.218,73.961 -262.096,73.963 z m -468.376,-299.753 c 37.433,82.228 102.165,156.97 181.188,208.258 156.669,102.93 361.341,112.958 519.16,27.944 -3.138,1.023 -6.3,2.006 -9.474,2.918 -2.566,0.753 -4.814,1.479 -6.987,2.181 -3.823,1.235 -7.437,2.4 -12.578,3.678 -2.574,0.667 -5.325,1.405 -8.15,2.161 -8.347,2.235 -16.977,4.547 -24.688,6.077 -112.955,26.537 -230.978,19.442 -341.205,-20.541 -110.071,-39.927 -205.294,-110.062 -275.371,-202.822 -6.041,-7.448 -13.325,-17.768 -16.172,-21.854 -1.952,-2.62 -3.856,-5.298 -5.723,-8 z"
   id="path22"
   style="stroke-width:6.06875" />
		</g>
	</g>
</g></g></g></svg>
